<?xml version="1.0" encoding="UTF-8"?>
<!DOCTYPE svg PUBLIC "-//W3C//DTD SVG 1.1//EN" "http://www.w3.org/Graphics/SVG/1.1/DTD/svg11.dtd">
<svg xmlns="http://www.w3.org/2000/svg" version="1.1" width="1170px" height="812px" style="shape-rendering:geometricPrecision; text-rendering:geometricPrecision; image-rendering:optimizeQuality; fill-rule:evenodd; clip-rule:evenodd" xmlns:xlink="http://www.w3.org/1999/xlink">
<g><path style="opacity:1" fill="#fefefe" d="M -0.5,-0.5 C 389.5,-0.5 779.5,-0.5 1169.5,-0.5C 1169.5,270.167 1169.5,540.833 1169.5,811.5C 779.5,811.5 389.5,811.5 -0.5,811.5C -0.5,540.833 -0.5,270.167 -0.5,-0.5 Z"/></g>
<g><path style="opacity:1" fill="#f1f1f1" d="M 155.5,94.5 C 152.695,108.055 157.695,117.555 170.5,123C 184.388,124.899 193.721,119.399 198.5,106.5C 202.339,108.964 206.673,110.797 211.5,112C 251.094,124.476 290.761,136.643 330.5,148.5C 331.519,160.904 335.852,171.904 343.5,181.5C 344.167,182.833 345.167,183.833 346.5,184.5C 347.5,187.5 349.5,189.5 352.5,190.5C 353.5,190.833 354.167,191.5 354.5,192.5C 354.973,193.906 355.973,194.573 357.5,194.5C 368.797,203.794 379.797,213.461 390.5,223.5C 390.832,266.003 390.499,308.337 389.5,350.5C 383.291,326.805 367.958,316.305 343.5,319C 359.36,332.699 375.027,346.532 390.5,360.5C 390.832,394.337 390.498,428.004 389.5,461.5C 387.039,441.249 377.206,425.915 360,415.5C 359.264,401.759 352.097,395.592 338.5,397C 328.121,402.139 325.288,409.972 330,420.5C 335.348,427.562 342.181,429.395 350.5,426C 354.022,423.811 356.855,420.978 359,417.5C 366.16,420.324 371.827,424.991 376,431.5C 382.686,441.555 387.019,452.555 389,464.5C 390.261,477.134 390.761,489.801 390.5,502.5C 346.167,502.5 301.833,502.5 257.5,502.5C 258.486,484.577 258.819,466.577 258.5,448.5C 258.443,412.658 259.11,376.991 260.5,341.5C 300.612,336.555 320.779,313.889 321,273.5C 312.301,234.152 287.801,216.319 247.5,220C 215.358,229.477 199.191,250.977 199,284.5C 203.687,317.02 222.187,335.687 254.5,340.5C 255.458,340.953 256.292,341.619 257,342.5C 257.62,376.838 257.453,411.171 256.5,445.5C 256.663,447.857 256.497,450.19 256,452.5C 253.148,436.625 245.981,423.125 234.5,412C 232.423,410.295 230.09,409.128 227.5,408.5C 226.899,401.813 224.233,395.98 219.5,391C 208.793,385.701 200.626,388.201 195,398.5C 193.065,410.552 198.065,417.552 210,419.5C 216.877,419.122 221.711,415.788 224.5,409.5C 231.193,411.669 236.693,415.669 241,421.5C 248.613,432.666 253.28,444.999 255,458.5C 255.5,473.163 255.667,487.83 255.5,502.5C 236.5,502.5 217.5,502.5 198.5,502.5C 172.167,502.5 145.833,502.5 119.5,502.5C 119.167,362.832 119.5,223.165 120.5,83.5C 132.133,87.3239 143.799,90.9906 155.5,94.5 Z"/></g>
<g><path style="opacity:1" fill="#fe7c4f" d="M 440.5,181.5 C 428.34,196.081 412.673,204.081 393.5,205.5C 393.167,205.5 392.833,205.5 392.5,205.5C 392.5,190.167 392.5,174.833 392.5,159.5C 401.703,158.793 406.703,153.793 407.5,144.5C 406.477,134.645 400.977,129.312 391,128.5C 377.114,131.94 373.114,140.273 379,153.5C 382.007,157.252 385.84,159.252 390.5,159.5C 390.5,174.833 390.5,190.167 390.5,205.5C 389.5,205.5 388.5,205.5 387.5,205.5C 378.422,187.622 363.755,179.622 343.5,181.5C 335.852,171.904 331.519,160.904 330.5,148.5C 330.215,120.562 342.549,100.395 367.5,88C 395.741,78.2685 419.907,84.4351 440,106.5C 456.424,131.426 456.591,156.426 440.5,181.5 Z"/></g>
<g><path style="opacity:1" fill="#4c4a62" d="M 198.5,106.5 C 193.721,119.399 184.388,124.899 170.5,123C 157.695,117.555 152.695,108.055 155.5,94.5C 162.719,79.8932 173.719,76.0598 188.5,83C 196.354,88.8787 199.688,96.712 198.5,106.5 Z"/></g>
<g><path style="opacity:1" fill="#efefef" d="M 158.5,93.5 C 158.369,94.3764 158.702,95.0431 159.5,95.5C 171.392,99.5757 183.392,103.242 195.5,106.5C 192.828,116.016 186.495,121.016 176.5,121.5C 161.866,119.582 155.366,111.249 157,96.5C 157.232,95.2625 157.732,94.2625 158.5,93.5 Z"/></g>
<g><path style="opacity:1" fill="#fbfbfc" d="M 195.5,106.5 C 183.392,103.242 171.392,99.5757 159.5,95.5C 158.702,95.0431 158.369,94.3764 158.5,93.5C 163.094,83.8691 170.761,80.0358 181.5,82C 193.309,86.2659 197.975,94.4326 195.5,106.5 Z"/></g>
<g><path style="opacity:1" fill="#434058" d="M 392.5,205.5 C 392.5,242.833 392.5,280.167 392.5,317.5C 392.963,320.482 393.296,323.482 393.5,326.5C 392.216,385.168 392.216,443.834 393.5,502.5C 392.5,502.5 391.5,502.5 390.5,502.5C 390.761,489.801 390.261,477.134 389,464.5C 387.019,452.555 382.686,441.555 376,431.5C 371.827,424.991 366.16,420.324 359,417.5C 356.855,420.978 354.022,423.811 350.5,426C 342.181,429.395 335.348,427.562 330,420.5C 325.288,409.972 328.121,402.139 338.5,397C 352.097,395.592 359.264,401.759 360,415.5C 377.206,425.915 387.039,441.249 389.5,461.5C 389.461,462.756 389.961,463.756 391,464.5C 391.831,429.664 391.664,394.998 390.5,360.5C 375.027,346.532 359.36,332.699 343.5,319C 367.958,316.305 383.291,326.805 389.5,350.5C 389.491,352.308 389.991,353.975 391,355.5C 391.831,311.331 391.665,267.331 390.5,223.5C 379.797,213.461 368.797,203.794 357.5,194.5C 357.027,193.094 356.027,192.427 354.5,192.5C 354.167,191.5 353.5,190.833 352.5,190.5C 350.833,188.167 348.833,186.167 346.5,184.5C 345.167,183.833 344.167,182.833 343.5,181.5C 363.755,179.622 378.422,187.622 387.5,205.5C 389.717,215.884 390.717,215.884 390.5,205.5C 390.5,190.167 390.5,174.833 390.5,159.5C 385.84,159.252 382.007,157.252 379,153.5C 373.114,140.273 377.114,131.94 391,128.5C 400.977,129.312 406.477,134.645 407.5,144.5C 406.703,153.793 401.703,158.793 392.5,159.5C 392.5,174.833 392.5,190.167 392.5,205.5 Z"/></g>
<g><path style="opacity:1" fill="#302f42" d="M 945.5,241.5 C 943.801,241.66 942.134,241.494 940.5,241C 942.093,240.051 943.426,238.885 944.5,237.5C 947.753,234.518 950.419,231.018 952.5,227C 952.272,226.601 951.938,226.435 951.5,226.5C 957.35,208.184 950.684,199.684 931.5,201C 925.201,202.963 920.368,206.797 917,212.5C 916.667,210.833 916.333,209.167 916,207.5C 913.974,213.566 914.14,219.566 916.5,225.5C 905.504,214.581 903.671,202.248 911,188.5C 910.896,177.038 915.729,168.372 925.5,162.5C 925.856,150.051 932.023,142.718 944,140.5C 959.622,143.136 964.788,151.97 959.5,167C 967.728,176.207 969.728,186.707 965.5,198.5C 972.508,213.657 969.508,226.491 956.5,237C 952.843,238.822 949.176,240.322 945.5,241.5 Z"/></g>
<g><path style="opacity:1" fill="#f1f1f1" d="M 440.5,181.5 C 440.47,182.497 440.97,183.164 442,183.5C 461.487,189.607 480.987,195.607 500.5,201.5C 499.678,220.51 508.678,229.677 527.5,229C 535.607,227.053 540.94,222.22 543.5,214.5C 588.506,229.049 633.673,243.382 679,257.5C 679.5,306.832 679.667,356.166 679.5,405.5C 666.406,406.76 659.073,413.927 657.5,427C 658.623,440.622 665.956,448.122 679.5,449.5C 679.5,463.5 679.5,477.5 679.5,491.5C 676.769,494.634 675.436,498.301 675.5,502.5C 645.833,502.5 616.167,502.5 586.5,502.5C 563.167,502.5 539.833,502.5 516.5,502.5C 516.186,489.421 516.52,476.421 517.5,463.5C 546.735,461.968 565.901,447.302 575,419.5C 581.916,385.498 569.749,360.998 538.5,346C 505.606,335.962 480.106,345.462 462,374.5C 448.446,406.403 455.28,432.903 482.5,454C 490.199,458.85 498.532,462.017 507.5,463.5C 509.797,465.294 511.963,467.294 514,469.5C 514.5,480.495 514.667,491.495 514.5,502.5C 474.167,502.5 433.833,502.5 393.5,502.5C 392.216,443.834 392.216,385.168 393.5,326.5C 394.557,305.882 402.557,288.382 417.5,274C 420.255,272.047 423.255,270.88 426.5,270.5C 430.67,279.909 437.67,282.743 447.5,279C 454.758,274.899 457.592,268.733 456,260.5C 450.014,249.281 441.514,246.781 430.5,253C 426.317,256.901 424.483,261.735 425,267.5C 424.005,268.066 423.172,268.733 422.5,269.5C 411.399,275.106 403.566,283.773 399,295.5C 396.789,300.298 395.289,305.298 394.5,310.5C 393.502,275.671 393.168,240.671 393.5,205.5C 412.673,204.081 428.34,196.081 440.5,181.5 Z"/></g>
<g><path style="opacity:1" fill="#e08c73" d="M 346.5,184.5 C 348.833,186.167 350.833,188.167 352.5,190.5C 349.5,189.5 347.5,187.5 346.5,184.5 Z"/></g>
<g><path style="opacity:1" fill="#4c4a61" d="M 543.5,214.5 C 540.94,222.22 535.607,227.053 527.5,229C 508.678,229.677 499.678,220.51 500.5,201.5C 507.793,186.354 519.126,182.187 534.5,189C 543.314,195.459 546.314,203.959 543.5,214.5 Z"/></g>
<g><path style="opacity:1" fill="#fcfcfc" d="M 541.5,213.5 C 528.478,210.985 515.811,207.318 503.5,202.5C 507.262,190.942 515.262,186.108 527.5,188C 539.623,192.414 544.29,200.914 541.5,213.5 Z"/></g>
<g><path style="opacity:1" fill="#c77e6c" d="M 354.5,192.5 C 356.027,192.427 357.027,193.094 357.5,194.5C 355.973,194.573 354.973,193.906 354.5,192.5 Z"/></g>
<g><path style="opacity:1" fill="#f8bcbc" d="M 951.5,226.5 C 949.5,229.167 947.167,231.5 944.5,233.5C 938.123,235.975 931.789,235.975 925.5,233.5C 924.831,235.631 924.165,237.631 923.5,239.5C 923.663,237.143 923.497,234.81 923,232.5C 920.628,230.297 918.461,227.963 916.5,225.5C 914.14,219.566 913.974,213.566 916,207.5C 916.333,209.167 916.667,210.833 917,212.5C 920.368,206.797 925.201,202.963 931.5,201C 950.684,199.684 957.35,208.184 951.5,226.5 Z"/></g>
<g><path style="opacity:1" fill="#efefef" d="M 503.5,202.5 C 515.811,207.318 528.478,210.985 541.5,213.5C 537.263,224.431 529.263,228.931 517.5,227C 505.691,222.734 501.025,214.567 503.5,202.5 Z"/></g>
<g><path style="opacity:1" fill="#eaeaeb" d="M 387.5,205.5 C 388.5,205.5 389.5,205.5 390.5,205.5C 390.717,215.884 389.717,215.884 387.5,205.5 Z"/></g>
<g><path style="opacity:1" fill="#d7d7db" d="M 392.5,205.5 C 392.833,205.5 393.167,205.5 393.5,205.5C 393.168,240.671 393.502,275.671 394.5,310.5C 393.935,312.952 393.268,315.285 392.5,317.5C 392.5,280.167 392.5,242.833 392.5,205.5 Z"/></g>
<g><path style="opacity:1" fill="#fe7c4f" d="M 260.5,341.5 C 260.5,326.167 260.5,310.833 260.5,295.5C 270.299,294.7 275.299,289.366 275.5,279.5C 273.808,268.13 267.142,263.297 255.5,265C 243.782,270.894 241.448,279.394 248.5,290.5C 251.357,293.262 254.691,294.929 258.5,295.5C 258.667,308.504 258.5,321.504 258,334.5C 252.364,310.178 237.198,299.012 212.5,301C 226.396,314.399 240.396,327.566 254.5,340.5C 222.187,335.687 203.687,317.02 199,284.5C 199.191,250.977 215.358,229.477 247.5,220C 287.801,216.319 312.301,234.152 321,273.5C 320.779,313.889 300.612,336.555 260.5,341.5 Z"/></g>
<g><path style="opacity:1" fill="#555469" d="M 390.5,223.5 C 391.665,267.331 391.831,311.331 391,355.5C 389.991,353.975 389.491,352.308 389.5,350.5C 390.499,308.337 390.832,266.003 390.5,223.5 Z"/></g>
<g><path style="opacity:1" fill="#eeecee" d="M 951.5,226.5 C 951.938,226.435 952.272,226.601 952.5,227C 950.419,231.018 947.753,234.518 944.5,237.5C 944.5,236.167 944.5,234.833 944.5,233.5C 947.167,231.5 949.5,229.167 951.5,226.5 Z"/></g>
<g><path style="opacity:1" fill="#e1abab" d="M 944.5,233.5 C 944.5,234.833 944.5,236.167 944.5,237.5C 943.426,238.885 942.093,240.051 940.5,241C 942.134,241.494 943.801,241.66 945.5,241.5C 945.738,243.404 946.738,244.738 948.5,245.5C 945.68,248.081 942.346,249.914 938.5,251C 932.529,252.131 926.529,252.464 920.5,252C 918.17,250.512 917.836,248.679 919.5,246.5C 921.604,244.628 922.937,242.295 923.5,239.5C 924.165,237.631 924.831,235.631 925.5,233.5C 931.789,235.975 938.123,235.975 944.5,233.5 Z"/></g>
<g><path style="opacity:1" fill="#cfcce0" d="M 959.5,346.5 C 958.325,346.281 957.325,346.614 956.5,347.5C 955.07,350.433 953.07,352.933 950.5,355C 941.167,359.667 931.833,364.333 922.5,369C 920.688,371.86 918.354,374.027 915.5,375.5C 912.485,373.326 909.151,371.659 905.5,370.5C 907.297,366.229 909.13,361.896 911,357.5C 927.71,340.019 925.21,337.019 903.5,348.5C 901.041,348.69 899.374,347.69 898.5,345.5C 899.463,344.637 899.463,343.97 898.5,343.5C 896.573,346.35 894.406,349.017 892,351.5C 891.506,353.134 891.34,354.801 891.5,356.5C 890.918,359.584 889.085,361.584 886,362.5C 885.333,364.5 884.667,366.5 884,368.5C 883.617,367.944 883.117,367.611 882.5,367.5C 882.158,366.662 881.492,366.328 880.5,366.5C 879.853,349.174 879.52,331.841 879.5,314.5C 881.264,306.522 883.264,298.522 885.5,290.5C 890.924,285.561 892.924,279.561 891.5,272.5C 894.749,268.341 897.249,263.674 899,258.5C 904.145,251.514 910.979,247.514 919.5,246.5C 917.836,248.679 918.17,250.512 920.5,252C 926.529,252.464 932.529,252.131 938.5,251C 942.346,249.914 945.68,248.081 948.5,245.5C 949.531,244.645 950.697,243.978 952,243.5C 961.967,247.403 967.634,254.736 969,265.5C 970.039,285.231 969.372,304.897 967,324.5C 964.611,332.187 962.111,339.521 959.5,346.5 Z"/></g>
<g><path style="opacity:1" fill="#413f57" d="M 426.5,270.5 C 425.432,269.566 424.099,269.232 422.5,269.5C 423.172,268.733 424.005,268.066 425,267.5C 424.483,261.735 426.317,256.901 430.5,253C 441.514,246.781 450.014,249.281 456,260.5C 457.592,268.733 454.758,274.899 447.5,279C 437.67,282.743 430.67,279.909 426.5,270.5 Z"/></g>
<g><path style="opacity:1" fill="#424059" d="M 582.5,251.5 C 596.026,251.183 601.193,257.516 598,270.5C 592.879,277.712 586.379,279.212 578.5,275C 570.872,265.55 572.206,257.717 582.5,251.5 Z"/></g>
<g><path style="opacity:1" fill="#443f57" d="M 260.5,341.5 C 259.11,376.991 258.443,412.658 258.5,448.5C 257.833,447.5 257.167,446.5 256.5,445.5C 257.453,411.171 257.62,376.838 257,342.5C 256.292,341.619 255.458,340.953 254.5,340.5C 240.396,327.566 226.396,314.399 212.5,301C 237.198,299.012 252.364,310.178 258,334.5C 258.5,321.504 258.667,308.504 258.5,295.5C 254.691,294.929 251.357,293.262 248.5,290.5C 241.448,279.394 243.782,270.894 255.5,265C 267.142,263.297 273.808,268.13 275.5,279.5C 275.299,289.366 270.299,294.7 260.5,295.5C 260.5,310.833 260.5,326.167 260.5,341.5 Z"/></g>
<g><path style="opacity:1" fill="#fdfafa" d="M 885.5,290.5 C 883.264,298.522 881.264,306.522 879.5,314.5C 878.181,307.323 878.181,299.99 879.5,292.5C 881.45,291.628 883.45,290.961 885.5,290.5 Z"/></g>
<g><path style="opacity:1" fill="#fe7f54" d="M 891.5,272.5 C 892.924,279.561 890.924,285.561 885.5,290.5C 883.45,290.961 881.45,291.628 879.5,292.5C 878.181,299.99 878.181,307.323 879.5,314.5C 879.52,331.841 879.853,349.174 880.5,366.5C 880.5,371.5 880.5,376.5 880.5,381.5C 880.662,383.527 880.495,385.527 880,387.5C 879.802,385.618 879.302,383.952 878.5,382.5C 878.5,376.833 878.5,371.167 878.5,365.5C 878.666,358.492 878.5,351.492 878,344.5C 876.008,343.335 874.175,342.002 872.5,340.5C 858.211,328.553 843.878,316.553 829.5,304.5C 851.152,301.154 866.152,309.487 874.5,329.5C 875.423,331.767 876.256,334.1 877,336.5C 877.818,330.651 877.652,324.985 876.5,319.5C 876.5,310.5 876.5,301.5 876.5,292.5C 866.903,291.57 861.57,286.237 860.5,276.5C 862.716,264.789 869.716,259.955 881.5,262C 886.41,264.075 889.743,267.575 891.5,272.5 Z"/></g>
<g><path style="opacity:1" fill="#535167" d="M 422.5,269.5 C 424.099,269.232 425.432,269.566 426.5,270.5C 423.255,270.88 420.255,272.047 417.5,274C 402.557,288.382 394.557,305.882 393.5,326.5C 393.296,323.482 392.963,320.482 392.5,317.5C 393.268,315.285 393.935,312.952 394.5,310.5C 395.289,305.298 396.789,300.298 399,295.5C 403.566,283.773 411.399,275.106 422.5,269.5 Z"/></g>
<g><path style="opacity:1" fill="#3f3d56" d="M 1005.5,533.5 C 1007.29,527.981 1007.79,522.315 1007,516.5C 1004.59,504.5 1002.26,492.5 1000,480.5C 999.215,478.714 998.049,477.214 996.5,476C 991.511,475.501 986.511,475.334 981.5,475.5C 981.5,476.5 981.5,477.5 981.5,478.5C 978.53,474.68 975.696,470.68 973,466.5C 971.871,464.859 970.371,463.859 968.5,463.5C 969.398,462.842 970.398,462.176 971.5,461.5C 969.187,456.207 966.354,451.207 963,446.5C 960.43,436.699 956.763,427.366 952,418.5C 949.749,416.623 947.249,415.123 944.5,414C 943.196,413.196 942.529,412.029 942.5,410.5C 943.921,404.661 947.087,399.995 952,396.5C 952.333,393.833 952.667,391.167 953,388.5C 957.095,382.743 960.762,376.743 964,370.5C 964.881,365.642 964.381,360.976 962.5,356.5C 984.757,346.038 1006.76,335.038 1028.5,323.5C 1049.47,364.778 1054.97,408.111 1045,453.5C 1037.89,483.384 1024.72,510.051 1005.5,533.5 Z"/></g>
<g><path style="opacity:1" fill="#e0bbbd" d="M 876.5,319.5 C 877.652,324.985 877.818,330.651 877,336.5C 876.256,334.1 875.423,331.767 874.5,329.5C 876.175,326.493 876.841,323.16 876.5,319.5 Z"/></g>
<g><path style="opacity:1" fill="#fe7c4f" d="M 517.5,463.5 C 517.167,448.485 517.501,433.485 518.5,418.5C 531.062,413.981 534.562,405.648 529,393.5C 521.835,386.545 514.001,385.712 505.5,391C 498.722,399.247 499.055,407.247 506.5,415C 508.867,416.845 511.533,418.011 514.5,418.5C 514.829,432.01 514.496,445.344 513.5,458.5C 509.255,441.586 498.588,431.586 481.5,428.5C 477.317,427.189 472.984,427.189 468.5,428.5C 468.624,429.107 468.957,429.44 469.5,429.5C 482.167,440.833 494.833,452.167 507.5,463.5C 498.532,462.017 490.199,458.85 482.5,454C 455.28,432.903 448.446,406.403 462,374.5C 480.106,345.462 505.606,335.962 538.5,346C 569.749,360.998 581.916,385.498 575,419.5C 565.901,447.302 546.735,461.968 517.5,463.5 Z"/></g>
<g><path style="opacity:1" fill="#d2cadc" d="M 872.5,340.5 C 874.175,342.002 876.008,343.335 878,344.5C 878.5,351.492 878.666,358.492 878.5,365.5C 876.097,365.552 873.764,365.219 871.5,364.5C 869.956,364.703 868.622,365.37 867.5,366.5C 866.824,365.398 866.158,364.398 865.5,363.5C 865.334,358.489 865.501,353.489 866,348.5C 867.365,346.14 869.365,344.473 872,343.5C 872.483,342.552 872.649,341.552 872.5,340.5 Z"/></g>
<g><path style="opacity:1" fill="#302f42" d="M 905.5,370.5 C 903.766,372.09 902.6,374.09 902,376.5C 901.352,381.204 901.519,385.871 902.5,390.5C 902.586,391.496 902.252,392.329 901.5,393C 892.167,397.667 882.833,402.333 873.5,407C 869.514,407.499 865.514,407.666 861.5,407.5C 864.229,421.336 865.229,435.336 864.5,449.5C 863.5,449.5 862.5,449.5 861.5,449.5C 855.697,449.791 850.03,449.125 844.5,447.5C 834.312,443.937 823.979,440.437 813.5,437C 812.027,436.29 811.36,435.124 811.5,433.5C 813.268,430.394 814.768,427.061 816,423.5C 819.301,412.025 821.635,400.359 823,388.5C 824.526,381.638 828.359,376.472 834.5,373C 844.69,369.325 855.023,366.159 865.5,363.5C 866.158,364.398 866.824,365.398 867.5,366.5C 868.622,365.37 869.956,364.703 871.5,364.5C 871.117,369.817 869.617,374.817 867,379.5C 865.819,386.967 868.319,392.8 874.5,397C 876.833,397.667 879.167,397.667 881.5,397C 880.139,395.416 879.472,393.582 879.5,391.5C 879.5,390.5 879.5,389.5 879.5,388.5C 880.5,388.5 881.5,388.5 882.5,388.5C 883.048,390.532 884.381,391.532 886.5,391.5C 887.41,383.062 886.077,375.062 882.5,367.5C 883.117,367.611 883.617,367.944 884,368.5C 884.667,366.5 885.333,364.5 886,362.5C 889.085,361.584 890.918,359.584 891.5,356.5C 894.516,355.941 897.516,355.275 900.5,354.5C 901.434,352.905 901.434,351.239 900.5,349.5C 901.791,349.737 902.791,349.404 903.5,348.5C 925.21,337.019 927.71,340.019 911,357.5C 909.13,361.896 907.297,366.229 905.5,370.5 Z"/></g>
<g><path style="opacity:1" fill="#f9f8f9" d="M 898.5,345.5 C 898.229,347.38 898.896,348.713 900.5,349.5C 901.434,351.239 901.434,352.905 900.5,354.5C 897.516,355.275 894.516,355.941 891.5,356.5C 891.34,354.801 891.506,353.134 892,351.5C 894.406,349.017 896.573,346.35 898.5,343.5C 899.463,343.97 899.463,344.637 898.5,345.5 Z"/></g>
<g><path style="opacity:1" fill="#2f2e41" d="M 959.5,346.5 C 960.901,349.704 961.901,353.037 962.5,356.5C 964.381,360.976 964.881,365.642 964,370.5C 960.762,376.743 957.095,382.743 953,388.5C 952.667,391.167 952.333,393.833 952,396.5C 947.087,399.995 943.921,404.661 942.5,410.5C 942.529,412.029 943.196,413.196 944.5,414C 947.249,415.123 949.749,416.623 952,418.5C 956.763,427.366 960.43,436.699 963,446.5C 966.354,451.207 969.187,456.207 971.5,461.5C 970.398,462.176 969.398,462.842 968.5,463.5C 963.55,465.308 958.883,467.642 954.5,470.5C 948.366,475.407 941.699,479.573 934.5,483C 930.82,484.027 927.653,483.194 925,480.5C 916.832,463.167 909.499,445.5 903,427.5C 902.333,421.5 902.333,415.5 903,409.5C 904.847,404.479 906.68,399.479 908.5,394.5C 909.794,393.71 910.961,392.71 912,391.5C 913.07,386.128 914.237,380.795 915.5,375.5C 918.354,374.027 920.688,371.86 922.5,369C 931.833,364.333 941.167,359.667 950.5,355C 953.07,352.933 955.07,350.433 956.5,347.5C 957.325,346.614 958.325,346.281 959.5,346.5 Z"/></g>
<g><path style="opacity:1" fill="#777687" d="M 898.5,345.5 C 899.374,347.69 901.041,348.69 903.5,348.5C 902.791,349.404 901.791,349.737 900.5,349.5C 898.896,348.713 898.229,347.38 898.5,345.5 Z"/></g>
<g><path style="opacity:1" fill="#57566b" d="M 390.5,360.5 C 391.664,394.998 391.831,429.664 391,464.5C 389.961,463.756 389.461,462.756 389.5,461.5C 390.498,428.004 390.832,394.337 390.5,360.5 Z"/></g>
<g><path style="opacity:1" fill="#f5baba" d="M 871.5,364.5 C 873.764,365.219 876.097,365.552 878.5,365.5C 878.5,371.167 878.5,376.833 878.5,382.5C 878.19,385.713 878.523,388.713 879.5,391.5C 879.472,393.582 880.139,395.416 881.5,397C 879.167,397.667 876.833,397.667 874.5,397C 868.319,392.8 865.819,386.967 867,379.5C 869.617,374.817 871.117,369.817 871.5,364.5 Z"/></g>
<g><path style="opacity:1" fill="#f4b7b7" d="M 880.5,366.5 C 881.492,366.328 882.158,366.662 882.5,367.5C 886.077,375.062 887.41,383.062 886.5,391.5C 884.381,391.532 883.048,390.532 882.5,388.5C 882.073,385.99 881.407,383.657 880.5,381.5C 880.5,376.5 880.5,371.5 880.5,366.5 Z"/></g>
<g><path style="opacity:1" fill="#f1b7b8" d="M 905.5,370.5 C 909.151,371.659 912.485,373.326 915.5,375.5C 914.237,380.795 913.07,386.128 912,391.5C 910.961,392.71 909.794,393.71 908.5,394.5C 905.682,394.343 903.682,393.009 902.5,390.5C 901.519,385.871 901.352,381.204 902,376.5C 902.6,374.09 903.766,372.09 905.5,370.5 Z"/></g>
<g><path style="opacity:1" fill="#454057" d="M 517.5,463.5 C 516.52,476.421 516.186,489.421 516.5,502.5C 515.833,502.5 515.167,502.5 514.5,502.5C 514.667,491.495 514.5,480.495 514,469.5C 511.963,467.294 509.797,465.294 507.5,463.5C 494.833,452.167 482.167,440.833 469.5,429.5C 473.298,428.517 477.298,428.183 481.5,428.5C 498.588,431.586 509.255,441.586 513.5,458.5C 513.709,459.922 514.209,461.255 515,462.5C 515.828,447.661 515.661,432.994 514.5,418.5C 511.533,418.011 508.867,416.845 506.5,415C 499.055,407.247 498.722,399.247 505.5,391C 514.001,385.712 521.835,386.545 529,393.5C 534.562,405.648 531.062,413.981 518.5,418.5C 517.501,433.485 517.167,448.485 517.5,463.5 Z"/></g>
<g><path style="opacity:1" fill="#413f58" d="M 227.5,408.5 C 226.209,408.263 225.209,408.596 224.5,409.5C 221.711,415.788 216.877,419.122 210,419.5C 198.065,417.552 193.065,410.552 195,398.5C 200.626,388.201 208.793,385.701 219.5,391C 224.233,395.98 226.899,401.813 227.5,408.5 Z"/></g>
<g><path style="opacity:1" fill="#875957" d="M 880.5,381.5 C 881.407,383.657 882.073,385.99 882.5,388.5C 881.5,388.5 880.5,388.5 879.5,388.5C 879.5,389.5 879.5,390.5 879.5,391.5C 878.523,388.713 878.19,385.713 878.5,382.5C 879.302,383.952 879.802,385.618 880,387.5C 880.495,385.527 880.662,383.527 880.5,381.5 Z"/></g>
<g><path style="opacity:1" fill="#3f3d56" d="M 902.5,390.5 C 903.682,393.009 905.682,394.343 908.5,394.5C 906.68,399.479 904.847,404.479 903,409.5C 902.333,415.5 902.333,421.5 903,427.5C 909.499,445.5 916.832,463.167 925,480.5C 927.653,483.194 930.82,484.027 934.5,483C 941.699,479.573 948.366,475.407 954.5,470.5C 961.538,480.06 968.038,490.06 974,500.5C 974.383,499.944 974.883,499.611 975.5,499.5C 975.461,500.583 975.127,501.583 974.5,502.5C 978.828,507.821 982.662,513.488 986,519.5C 987.653,524.418 988.986,529.418 990,534.5C 990.833,535.333 991.667,536.167 992.5,537C 995.817,537.498 999.15,537.665 1002.5,537.5C 957.716,587.028 901.716,609.195 834.5,604C 773.572,595.831 726.238,566.331 692.5,515.5C 688.001,515.09 683.834,513.757 680,511.5C 679.5,584.833 679.333,658.166 679.5,731.5C 492.833,731.5 306.167,731.5 119.5,731.5C 119.5,655.167 119.5,578.833 119.5,502.5C 145.833,502.5 172.167,502.5 198.5,502.5C 200.965,574.625 232.298,630.125 292.5,669C 348.377,700.784 406.377,705.117 466.5,682C 533.546,651.787 573.046,600.287 585,527.5C 585.69,519.174 586.19,510.841 586.5,502.5C 616.167,502.5 645.833,502.5 675.5,502.5C 675.436,498.301 676.769,494.634 679.5,491.5C 685.172,487.501 690.839,487.501 696.5,491.5C 734.673,471.913 773.007,452.58 811.5,433.5C 811.36,435.124 812.027,436.29 813.5,437C 823.979,440.437 834.312,443.937 844.5,447.5C 844.448,456.518 844.782,465.518 845.5,474.5C 847.833,474.5 850.167,474.5 852.5,474.5C 849.834,474.98 847.334,475.98 845,477.5C 844.346,483.852 844.512,490.185 845.5,496.5C 845.292,499.998 844.459,503.331 843,506.5C 841.25,514.422 844.083,516.922 851.5,514C 854.719,510.448 857.552,506.615 860,502.5C 866.967,490.232 873.134,477.565 878.5,464.5C 877.91,463.201 876.91,462.368 875.5,462C 870.872,460.51 866.206,459.343 861.5,458.5C 861.5,455.5 861.5,452.5 861.5,449.5C 862.5,449.5 863.5,449.5 864.5,449.5C 865.229,435.336 864.229,421.336 861.5,407.5C 865.514,407.666 869.514,407.499 873.5,407C 882.833,402.333 892.167,397.667 901.5,393C 902.252,392.329 902.586,391.496 902.5,390.5 Z"/></g>
<g><path style="opacity:1" fill="#4d4b62" d="M 679.5,405.5 C 696.827,408.327 703.66,418.327 700,435.5C 696.037,444.286 689.204,448.952 679.5,449.5C 665.956,448.122 658.623,440.622 657.5,427C 659.073,413.927 666.406,406.76 679.5,405.5 Z"/></g>
<g><path style="opacity:1" fill="#fbfbfc" d="M 679.5,407.5 C 694.131,409.408 700.631,417.742 699,432.5C 695.929,441.953 689.429,446.953 679.5,447.5C 679.5,434.167 679.5,420.833 679.5,407.5 Z"/></g>
<g><path style="opacity:1" fill="#efefef" d="M 679.5,407.5 C 679.5,420.833 679.5,434.167 679.5,447.5C 667.173,446.507 660.507,439.84 659.5,427.5C 660.507,415.16 667.173,408.493 679.5,407.5 Z"/></g>
<g><path style="opacity:1" fill="#b76451" d="M 514.5,418.5 C 515.661,432.994 515.828,447.661 515,462.5C 514.209,461.255 513.709,459.922 513.5,458.5C 514.496,445.344 514.829,432.01 514.5,418.5 Z"/></g>
<g><path style="opacity:1" fill="#8e5653" d="M 481.5,428.5 C 477.298,428.183 473.298,428.517 469.5,429.5C 468.957,429.44 468.624,429.107 468.5,428.5C 472.984,427.189 477.317,427.189 481.5,428.5 Z"/></g>
<g><path style="opacity:1" fill="#525067" d="M 224.5,409.5 C 225.209,408.596 226.209,408.263 227.5,408.5C 230.09,409.128 232.423,410.295 234.5,412C 245.981,423.125 253.148,436.625 256,452.5C 256.497,450.19 256.663,447.857 256.5,445.5C 257.167,446.5 257.833,447.5 258.5,448.5C 258.819,466.577 258.486,484.577 257.5,502.5C 256.833,502.5 256.167,502.5 255.5,502.5C 255.667,487.83 255.5,473.163 255,458.5C 253.28,444.999 248.613,432.666 241,421.5C 236.693,415.669 231.193,411.669 224.5,409.5 Z"/></g>
<g><path style="opacity:1" fill="#f6bbbb" d="M 844.5,447.5 C 850.03,449.125 855.697,449.791 861.5,449.5C 861.5,452.5 861.5,455.5 861.5,458.5C 861.093,465.317 858.093,470.65 852.5,474.5C 850.167,474.5 847.833,474.5 845.5,474.5C 844.782,465.518 844.448,456.518 844.5,447.5 Z"/></g>
<g><path style="opacity:1" fill="#2f2e41" d="M 861.5,458.5 C 866.206,459.343 870.872,460.51 875.5,462C 876.91,462.368 877.91,463.201 878.5,464.5C 873.134,477.565 866.967,490.232 860,502.5C 857.552,506.615 854.719,510.448 851.5,514C 844.083,516.922 841.25,514.422 843,506.5C 844.459,503.331 845.292,499.998 845.5,496.5C 844.512,490.185 844.346,483.852 845,477.5C 847.334,475.98 849.834,474.98 852.5,474.5C 858.093,470.65 861.093,465.317 861.5,458.5 Z"/></g>
<g><path style="opacity:1" fill="#f7bbbb" d="M 968.5,463.5 C 970.371,463.859 971.871,464.859 973,466.5C 975.696,470.68 978.53,474.68 981.5,478.5C 988.302,488.025 986.302,495.025 975.5,499.5C 974.883,499.611 974.383,499.944 974,500.5C 968.038,490.06 961.538,480.06 954.5,470.5C 958.883,467.642 963.55,465.308 968.5,463.5 Z"/></g>
<g><path style="opacity:1" fill="#2f2e41" d="M 1005.5,533.5 C 1004.97,535.23 1003.97,536.564 1002.5,537.5C 999.15,537.665 995.817,537.498 992.5,537C 991.667,536.167 990.833,535.333 990,534.5C 988.986,529.418 987.653,524.418 986,519.5C 982.662,513.488 978.828,507.821 974.5,502.5C 975.127,501.583 975.461,500.583 975.5,499.5C 986.302,495.025 988.302,488.025 981.5,478.5C 981.5,477.5 981.5,476.5 981.5,475.5C 986.511,475.334 991.511,475.501 996.5,476C 998.049,477.214 999.215,478.714 1000,480.5C 1002.26,492.5 1004.59,504.5 1007,516.5C 1007.79,522.315 1007.29,527.981 1005.5,533.5 Z"/></g>
<g><path style="opacity:1" fill="#fe7b4f" d="M 198.5,502.5 C 217.5,502.5 236.5,502.5 255.5,502.5C 256.167,502.5 256.833,502.5 257.5,502.5C 301.833,502.5 346.167,502.5 390.5,502.5C 391.5,502.5 392.5,502.5 393.5,502.5C 433.833,502.5 474.167,502.5 514.5,502.5C 515.167,502.5 515.833,502.5 516.5,502.5C 539.833,502.5 563.167,502.5 586.5,502.5C 586.19,510.841 585.69,519.174 585,527.5C 573.046,600.287 533.546,651.787 466.5,682C 406.377,705.117 348.377,700.784 292.5,669C 232.298,630.125 200.965,574.625 198.5,502.5 Z"/></g>
</svg>
